<svg width="718" height="108" viewBox="0 0 718 108" fill="none" xmlns="http://www.w3.org/2000/svg">
<path d="M301.561 71.1622C296.286 71.1622 294.679 69.6003 294.672 64.4897V31.539H319.88V18.1941L302.87 18.181C301.878 18.181 300.946 18.5535 300.232 19.2332L294.56 24.6117V1.98016L279.797 15.0572V15.3186C279.797 20.8997 279.797 26.4873 279.797 32.0684C279.797 35.3752 279.791 38.6821 279.778 41.9889C279.745 49.7985 279.718 57.8695 279.91 65.8098C280.161 76.1551 288.676 84.3895 299.3 84.5529C301.766 84.5921 304.245 84.6052 306.718 84.6052C308.886 84.6052 311.048 84.5986 313.17 84.5856L317.857 84.5725C318.261 84.5725 318.644 84.4941 318.988 84.4287C319.127 84.4026 319.259 84.3764 319.391 84.3568L319.894 84.2784V71.1687H301.568L301.561 71.1622Z" fill="black"/>
<path d="M37.6597 1.20245C27.3927 1.18938 17.1323 1.19591 6.86534 1.20245H3.31519C2.80614 1.20245 2.29709 1.23512 1.77481 1.27433L0.46582 1.34622V84.579H12.4715C16.2266 84.579 19.9619 84.579 23.6905 84.579C28.3711 84.579 33.032 84.579 37.6994 84.5725C49.8175 84.5529 58.2929 76.1812 58.3127 64.2087C58.3391 50.55 58.3325 35.3164 58.3127 21.6643C58.2995 9.44338 49.996 1.22205 37.6597 1.20245ZM43.3915 65.6072C43.3915 69.3258 41.547 71.1425 37.7655 71.1556C32.0932 71.1752 26.4143 71.1687 20.742 71.1622H16.4844C16.1539 71.1622 15.8167 71.136 15.4267 71.1099H15.3209V14.7304C15.3209 14.7304 15.3473 14.7304 15.3606 14.7304C15.7506 14.6781 16.1142 14.6258 16.4646 14.6258C23.5583 14.6128 30.652 14.5997 37.7456 14.6258C41.5338 14.6389 43.3783 16.4492 43.3849 20.1546C43.4047 34.7805 43.4047 50.9879 43.3849 65.6137L43.3915 65.6072Z" fill="black"/>
<path d="M187.129 18.1941L184.597 18.1745C181.669 18.1483 178.641 18.1222 175.659 18.2464C174.403 18.2986 172.975 18.8411 171.937 19.658C170.443 20.8278 169.088 22.0891 167.514 23.553C167.157 23.8863 166.787 24.2326 166.404 24.579V18.2725H151.727V107.956H166.463V84.579H172.678C177.557 84.5855 182.31 84.5921 187.063 84.579C198.97 84.5463 207.472 76.4557 207.736 64.9014C207.934 56.288 207.941 47.2171 207.736 37.9501C207.491 26.5526 198.824 18.2464 187.129 18.1941ZM192.815 66.3849C192.788 69.084 190.845 71.0707 188.2 71.1099C183.011 71.1883 177.913 71.1752 172.525 71.1556C170.562 71.1556 168.592 71.1426 166.595 71.1426V31.6044H181.788C183.652 31.5913 185.516 31.5848 187.381 31.6109C190.746 31.6567 192.775 33.4865 192.808 36.4993C192.927 45.9035 192.927 55.6737 192.808 66.3784L192.815 66.3849Z" fill="black"/>
<path d="M700.506 52.6413C710.931 45.263 715.83 34.5191 715.909 18.8868V18.2986H701.187L701.147 18.8476C700.645 26.2847 699.726 33.4016 694.179 38.7082C688.943 43.7207 682.233 45.0278 674.65 46.0015V0.836487H660.02V84.4222H674.709V76.0244C674.729 71.4955 674.736 66.8097 674.676 62.1958C674.656 60.8496 674.894 60.5947 676.283 60.4705C679.496 60.1895 682.484 59.6863 685.161 58.987C686.755 58.5688 687.264 58.9544 687.984 60.3268C691.865 67.6985 695.931 75.1356 699.851 82.3309L700.043 82.6773C700.697 83.8732 701.345 84.4875 701.987 84.5071C704.677 84.5725 707.348 84.5855 710.092 84.5855C711.176 84.5855 712.273 84.5855 713.391 84.5855H717.827L700.499 52.6544L700.506 52.6413Z" fill="black"/>
<path d="M250.589 18.1941C243.786 18.1614 236.983 18.1745 230.18 18.181H224.257C223.794 18.1875 223.331 18.2333 222.855 18.279C222.644 18.2986 222.426 18.3182 222.201 18.3379L221.652 18.3771V31.6044H230.709C236.606 31.6044 242.497 31.5913 248.394 31.624C249.736 31.6305 251.071 31.7743 252.347 32.0422C253.365 32.2579 255.131 32.9245 255.494 34.9635C255.765 36.4993 255.864 38.0612 255.97 39.7081C256.003 40.2309 256.036 40.7537 256.076 41.2896C253.894 41.2896 251.752 41.2896 249.63 41.2765C244.427 41.2635 239.515 41.2504 234.524 41.3027C224.911 41.3942 217.196 47.5111 215.319 56.5232C214.697 59.5164 214.578 62.9278 214.955 67.2541C215.702 75.8806 222.366 82.9517 230.802 84.0758C233.843 84.481 236.95 84.5659 240.018 84.5659C241.161 84.5659 242.305 84.5529 243.436 84.5398C244.652 84.5267 245.895 84.5136 247.092 84.5136C248.136 84.5136 249.452 83.9974 250.437 83.2001C251.951 81.9714 253.346 80.684 254.959 79.1874C255.309 78.8607 255.666 78.5274 256.036 78.1875V84.4548H270.647L270.713 83.9386C270.733 83.7882 270.753 83.651 270.772 83.5203C270.819 83.2197 270.858 82.9583 270.858 82.6903C270.858 78.2725 270.872 73.8547 270.885 69.4369C270.918 58.9413 270.958 48.0863 270.779 37.4142C270.594 26.1475 262.29 18.2398 250.589 18.1875V18.1941ZM255.858 54.7391V71.1622H247.495C243.555 71.1622 239.621 71.1687 235.681 71.1622C231.423 71.1491 229.592 69.3258 229.566 65.0583L229.552 63.797C229.533 62.4376 229.519 61.0326 229.599 59.6667C229.764 56.85 231.635 54.8437 234.147 54.7979C237.294 54.7326 240.48 54.713 243.647 54.713C245.769 54.713 247.892 54.7195 249.974 54.726C251.924 54.7326 253.888 54.7391 255.858 54.7457V54.7391Z" fill="black"/>
<path d="M574.842 18.2268C568.145 18.1353 561.336 18.1549 554.745 18.181C552.054 18.1875 549.363 18.2006 546.673 18.2006C546.395 18.2006 546.111 18.2464 545.84 18.2986L545.033 18.4163V31.6109H552.061C558.573 31.6044 565.012 31.6044 571.451 31.6305C572.819 31.6305 574.155 31.7612 575.424 32.003C577.507 32.3952 578.756 33.7087 579.021 35.8C579.186 37.0875 579.239 38.4141 579.292 39.8192C579.311 40.2963 579.331 40.7864 579.351 41.2961H577.09C575.08 41.2961 573.051 41.2961 571.034 41.2831C566.565 41.27 561.944 41.2569 557.389 41.3288C548.312 41.4791 540.657 47.5373 538.766 56.0723C538.065 59.2419 537.9 62.8951 538.257 67.241C538.971 75.8675 545.621 82.9517 554.077 84.0823C557.125 84.4875 560.245 84.579 563.326 84.579C564.456 84.579 565.58 84.566 566.698 84.5529C567.821 84.5398 568.952 84.5267 570.076 84.5267C570.175 84.5267 570.254 84.5071 570.38 84.5267C571.438 84.5267 572.753 84.017 573.725 83.2262C575.239 81.9976 576.7 80.6448 578.24 79.2136C578.591 78.8868 578.954 78.5535 579.325 78.2137V84.3895H594.094V83.8013C594.094 79.0633 594.114 74.3448 594.133 69.6395C594.18 58.7779 594.226 47.5504 594.014 36.5385C593.823 26.2455 585.579 18.3705 574.836 18.2268H574.842ZM579.192 54.7195V71.1622H564.655C562.585 71.1753 560.516 71.1818 558.447 71.1556C555.029 71.1099 552.999 69.182 552.887 65.8621C552.808 63.5944 552.814 61.6077 552.9 59.7974C553.039 56.8239 554.996 54.7979 557.766 54.7587C560.814 54.713 563.835 54.6999 566.896 54.6999C568.985 54.6999 571.094 54.6999 573.256 54.713C575.219 54.713 577.189 54.7261 579.186 54.7261L579.192 54.7195Z" fill="black"/>
<path d="M129.295 45.3872C125.051 44.799 120.661 44.8448 116.43 44.8905C114.678 44.9101 112.926 44.9297 111.168 44.9036C106.818 44.8448 104.795 42.7077 104.788 38.1854C104.782 33.8329 106.89 31.6174 111.062 31.6109C117.422 31.5978 123.782 31.6044 130.142 31.6044H141.116V18.3378L140.071 18.2529C139.721 18.2202 139.404 18.1941 139.086 18.1941H132.846C125.276 18.181 117.462 18.1745 109.766 18.2267C108.153 18.2398 106.381 18.4947 104.656 18.9652C94.931 21.6251 88.8621 30.9901 90.2173 41.2242C91.5462 51.2689 99.3935 58.1244 109.733 58.2878C111.941 58.3204 114.149 58.3139 116.357 58.3074C119.213 58.2943 122.169 58.2877 125.071 58.3727C126.36 58.4119 127.781 58.8759 128.7 59.5621C130.578 60.9672 131.206 64.7772 130.049 67.7181C129.057 70.2276 127.504 71.1622 124.304 71.1622C117.409 71.1687 110.513 71.1622 103.605 71.1622H91.9957V84.5398H92.5907C96.0813 84.5398 99.5588 84.5594 103.03 84.579C106.414 84.5986 109.846 84.6182 113.29 84.6182C117.825 84.6182 122.387 84.5855 126.896 84.4679C136.475 84.2196 144.719 76.2204 145.268 66.6398C145.929 55.1639 139.662 46.8184 129.302 45.3872H129.295Z" fill="black"/>
<path d="M374.996 18.2006L367.48 18.1875C360.981 18.1745 354.482 18.1679 347.984 18.1941C336.414 18.2464 327.899 26.5788 327.734 38.0024C327.608 46.7204 327.608 55.7129 327.734 64.725C327.899 76.3708 336.302 84.5333 348.169 84.5725C351.421 84.5855 354.674 84.5855 357.927 84.5855C361.179 84.5855 364.478 84.5855 367.751 84.579H373.813C374.276 84.5725 374.739 84.5398 375.221 84.5136L376.484 84.4418V71.1622H365.8C360.115 71.1622 354.436 71.1622 348.757 71.1622C344.328 71.1622 342.596 69.4891 342.582 65.2216C342.556 55.5103 342.556 46.4786 342.582 37.6168C342.596 33.3035 344.314 31.6175 348.711 31.6109C354.548 31.6044 360.386 31.6044 366.224 31.6109H376.53V18.3901L375.585 18.266C375.334 18.2268 375.162 18.2071 374.996 18.2071V18.2006Z" fill="black"/>
<path d="M649.243 18.1941H644.113C637.277 18.181 630.434 18.1745 623.598 18.1941C611.718 18.2333 603.302 26.3893 603.137 38.022C603.012 46.8903 603.012 55.8763 603.137 64.7446C603.302 76.3838 611.718 84.5333 623.592 84.5725C626.904 84.5855 630.21 84.5855 633.522 84.5855C637.158 84.5855 640.794 84.5855 644.43 84.579H649.236C649.699 84.579 650.162 84.5398 650.644 84.5071L651.887 84.4352V71.1622H641.29C635.498 71.1622 629.707 71.1687 623.916 71.1622C619.784 71.1556 618.012 69.4369 617.999 65.4308C617.966 56.7977 617.966 47.6941 617.999 37.5972C618.012 33.297 619.738 31.624 624.147 31.6109C629.985 31.6044 635.822 31.6044 641.66 31.6109H651.933V18.3379L650.664 18.2594C650.168 18.2268 649.706 18.1941 649.243 18.1941Z" fill="black"/>
<path d="M495.278 0.927994H441.616V14.2011H461.066V84.4548H475.914V14.1815H495.278V0.927994Z" fill="black"/>
<path d="M531.877 18.1941C526.536 18.1875 521.194 18.1875 515.852 18.1941C503.007 18.2072 494.703 26.435 494.683 39.1657C494.67 50.8507 494.677 62.5357 494.683 74.2207V81.4748C494.683 82.0237 494.723 82.5727 494.756 83.1413L494.829 84.5071H509.558V68.2605C509.558 58.3335 509.558 48.413 509.558 38.486C509.558 33.0291 510.966 31.6109 516.414 31.6109H521.081C524.718 31.6109 528.347 31.6109 531.976 31.6109C532.486 31.6109 532.995 31.5782 533.523 31.539L534.799 31.4606V18.3313L533.424 18.2594C532.889 18.2268 532.38 18.2006 531.877 18.2006V18.1941Z" fill="black"/>
<path d="M82.1588 23.468H67.6211V84.5006H82.1588V23.468Z" fill="black"/>
<path d="M82.1588 1.2482H67.6211V15.0702H82.1588V1.2482Z" fill="black"/>
<path d="M442.667 42.5771C442.462 32.4866 435.561 24.9123 425.479 23.7229C421.525 23.2589 417.459 23.3439 413.526 23.4353C412.151 23.468 410.769 23.4942 409.394 23.5072C408.554 23.5072 407.735 24.1411 407.106 24.6901C405.619 26.0037 404.158 27.35 402.525 28.8596L401.824 29.5V36.8718H421.214C426.193 36.8718 427.872 38.5579 427.872 43.5443C427.872 53.5824 427.872 58.3858 427.872 68.4174V84.4548H442.357L442.496 84.0627C442.529 83.9712 442.562 83.8928 442.588 83.8275C442.654 83.6706 442.727 83.5072 442.727 83.2981C442.727 78.828 442.753 74.3514 442.773 69.8747C442.819 59.2092 442.872 53.4125 442.654 42.564L442.667 42.5771Z" fill="black"/>
<path d="M401.83 1.98016H386.764V84.6052H401.83V1.98016Z" fill="black"/>
</svg>
