<svg width="719" height="108" viewBox="0 0 719 108" fill="none" xmlns="http://www.w3.org/2000/svg">
<path d="M301.963 70.9402C296.687 70.9402 295.081 69.3783 295.074 64.2677V31.3171H320.282V17.9721L303.272 17.959C302.28 17.959 301.348 18.3315 300.634 19.0112L294.962 24.3897V1.75818L280.199 14.8352V15.0966C280.199 20.6777 280.199 26.2653 280.199 31.8464C280.199 35.1532 280.193 38.4601 280.18 41.7669C280.146 49.5765 280.12 57.6475 280.312 65.5878C280.563 75.9331 289.078 84.1675 299.702 84.3309C302.168 84.3701 304.647 84.3832 307.12 84.3832C309.288 84.3832 311.45 84.3766 313.572 84.3636L318.259 84.3505C318.663 84.3505 319.046 84.2721 319.39 84.2067C319.529 84.1806 319.661 84.1545 319.793 84.1348L320.295 84.0564V70.9467H301.97L301.963 70.9402Z" fill="white"/>
<path d="M38.062 0.980477C27.7951 0.967407 17.5347 0.973942 7.26768 0.980477H3.71754C3.20848 0.980477 2.69943 1.01315 2.17716 1.05236L0.868164 1.12425V84.357H12.8739C16.629 84.357 20.3642 84.357 24.0929 84.357C28.7735 84.357 33.4343 84.357 38.1017 84.3505C50.2198 84.3309 58.6952 75.9593 58.715 63.9867C58.7415 50.3281 58.7349 35.0944 58.715 21.4423C58.7018 9.22141 50.3983 1.00008 38.062 0.980477ZM43.7938 65.3852C43.7938 69.1038 41.9494 70.9206 38.1678 70.9336C32.4955 70.9533 26.8166 70.9467 21.1443 70.9402H16.8868C16.5562 70.9402 16.2191 70.914 15.829 70.8879H15.7232V14.5084C15.7232 14.5084 15.7497 14.5084 15.7629 14.5084C16.153 14.4561 16.5166 14.4039 16.867 14.4039C23.9606 14.3908 31.0543 14.3777 38.148 14.4039C41.9361 14.4169 43.7806 16.2272 43.7872 19.9327C43.8071 34.5585 43.8071 50.7659 43.7872 65.3918L43.7938 65.3852Z" fill="white"/>
<path d="M187.532 17.9721L185 17.9525C182.071 17.9264 179.043 17.9002 176.061 18.0244C174.805 18.0767 173.377 18.6191 172.339 19.436C170.845 20.6058 169.49 21.8671 167.917 23.331C167.56 23.6643 167.189 24.0107 166.806 24.357V18.0505H152.129V107.734H166.865V84.357H173.08C177.959 84.3636 182.712 84.3701 187.466 84.357C199.372 84.3244 207.874 76.2337 208.138 64.6794C208.337 56.066 208.343 46.9951 208.138 37.7281C207.894 26.3307 199.227 18.0244 187.532 17.9721ZM193.217 66.1629C193.191 68.862 191.247 70.8487 188.603 70.8879C183.413 70.9663 178.316 70.9533 172.928 70.9337C170.964 70.9337 168.994 70.9206 166.998 70.9206V31.3824H182.19C184.054 31.3693 185.919 31.3628 187.783 31.3889C191.148 31.4347 193.178 33.2646 193.211 36.2773C193.33 45.6815 193.33 55.4517 193.211 66.1564L193.217 66.1629Z" fill="white"/>
<path d="M700.908 52.4193C711.334 45.041 716.233 34.2971 716.312 18.6648V18.0767H701.589L701.549 18.6256C701.047 26.0627 700.128 33.1796 694.581 38.4862C689.345 43.4987 682.635 44.8058 675.052 45.7795V0.614502H660.422V84.2002H675.112V75.8024C675.132 71.2735 675.138 66.5877 675.079 61.9738C675.059 60.6276 675.297 60.3727 676.685 60.2485C679.898 59.9675 682.886 59.4643 685.564 58.765C687.157 58.3468 687.666 58.7324 688.387 60.1048C692.267 67.4765 696.333 74.9136 700.254 82.1089L700.445 82.4553C701.1 83.6512 701.748 84.2655 702.389 84.2851C705.08 84.3505 707.751 84.3636 710.494 84.3636C711.578 84.3636 712.676 84.3636 713.793 84.3636H718.229L700.901 52.4324L700.908 52.4193Z" fill="white"/>
<path d="M250.992 17.9721C244.189 17.9394 237.386 17.9525 230.583 17.959H224.66C224.197 17.9656 223.734 18.0113 223.258 18.057C223.047 18.0767 222.828 18.0963 222.604 18.1159L222.055 18.1551V31.3824H231.112C237.009 31.3824 242.9 31.3693 248.797 31.402C250.139 31.4085 251.474 31.5523 252.75 31.8203C253.768 32.0359 255.533 32.7025 255.897 34.7415C256.168 36.2773 256.267 37.8392 256.373 39.4861C256.406 40.0089 256.439 40.5317 256.479 41.0676C254.297 41.0676 252.155 41.0676 250.033 41.0545C244.83 41.0415 239.918 41.0284 234.927 41.0807C225.314 41.1722 217.599 47.2892 215.722 56.3013C215.1 59.2944 214.981 62.7058 215.358 67.0321C216.105 75.6586 222.769 82.7298 231.205 83.8538C234.246 84.259 237.353 84.3439 240.421 84.3439C241.564 84.3439 242.708 84.3309 243.838 84.3178C245.055 84.3047 246.298 84.2917 247.494 84.2917C248.539 84.2917 249.855 83.7754 250.84 82.9781C252.354 81.7495 253.748 80.462 255.362 78.9655C255.712 78.6387 256.069 78.3054 256.439 77.9656V84.2328H271.05L271.116 83.7166C271.136 83.5663 271.155 83.429 271.175 83.2983C271.222 82.9977 271.261 82.7363 271.261 82.4683C271.261 78.0505 271.274 73.6327 271.288 69.2149C271.321 58.7193 271.36 47.8643 271.182 37.1922C270.997 25.9255 262.693 18.0178 250.992 17.9656V17.9721ZM256.261 54.5171V70.9402H247.898C243.957 70.9402 240.024 70.9467 236.084 70.9402C231.826 70.9271 229.995 69.1038 229.968 64.8363L229.955 63.575C229.935 62.2156 229.922 60.8106 230.002 59.4447C230.167 56.628 232.038 54.6217 234.55 54.576C237.697 54.5106 240.883 54.491 244.05 54.491C246.172 54.491 248.294 54.4975 250.377 54.5041C252.327 54.5106 254.291 54.5171 256.261 54.5237V54.5171Z" fill="white"/>
<path d="M575.244 18.0048C568.547 17.9133 561.738 17.9329 555.147 17.959C552.456 17.9656 549.765 17.9786 547.074 17.9786C546.797 17.9786 546.513 18.0244 546.241 18.0767L545.435 18.1943V31.3889H552.462C558.974 31.3824 565.414 31.3824 571.853 31.4085C573.221 31.4085 574.557 31.5392 575.826 31.7811C577.909 32.1732 579.158 33.4868 579.422 35.578C579.588 36.8655 579.641 38.1921 579.693 39.5972C579.713 40.0743 579.733 40.5644 579.753 41.0742H577.492C575.482 41.0742 573.453 41.0742 571.436 41.0611C566.967 41.048 562.346 41.0349 557.791 41.1068C548.714 41.2571 541.058 47.3153 539.168 55.8503C538.467 59.0199 538.302 62.6731 538.659 67.0191C539.373 75.6456 546.023 82.7298 554.479 83.8604C557.527 84.2655 560.647 84.357 563.728 84.357C564.858 84.357 565.982 84.344 567.099 84.3309C568.223 84.3178 569.354 84.3047 570.478 84.3047C570.577 84.3047 570.656 84.2851 570.782 84.3047C571.84 84.3047 573.155 83.795 574.127 83.0042C575.641 81.7756 577.102 80.4228 578.642 78.9916C578.993 78.6648 579.356 78.3315 579.727 77.9917V84.1675H594.496V83.5793C594.496 78.8413 594.516 74.1229 594.535 69.4175C594.582 58.5559 594.628 47.3284 594.416 36.3165C594.225 26.0235 585.981 18.1486 575.238 18.0048H575.244ZM579.594 54.4975V70.9402H565.057C562.987 70.9533 560.918 70.9598 558.849 70.9337C555.431 70.8879 553.401 68.96 553.289 65.6401C553.21 63.3724 553.216 61.3857 553.302 59.5754C553.441 56.6019 555.398 54.576 558.168 54.5368C561.216 54.491 564.237 54.4779 567.298 54.4779C569.387 54.4779 571.496 54.4779 573.658 54.491C575.621 54.491 577.591 54.5041 579.588 54.5041L579.594 54.4975Z" fill="white"/>
<path d="M129.698 45.1652C125.453 44.577 121.064 44.6228 116.833 44.6685C115.081 44.6881 113.329 44.7078 111.57 44.6816C107.22 44.6228 105.197 42.4858 105.19 37.9634C105.184 33.6109 107.293 31.3955 111.464 31.3889C117.824 31.3759 124.184 31.3824 130.544 31.3824H141.518V18.1159L140.474 18.0309C140.123 17.9982 139.806 17.9721 139.489 17.9721H133.248C125.678 17.959 117.864 17.9525 110.169 18.0048C108.556 18.0178 106.784 18.2727 105.058 18.7433C95.3334 21.4031 89.2644 30.7681 90.6197 41.0023C91.9485 51.0469 99.7958 57.9024 110.136 58.0658C112.344 58.0985 114.552 58.0919 116.76 58.0854C119.616 58.0723 122.571 58.0658 125.473 58.1507C126.762 58.1899 128.184 58.6539 129.103 59.3401C130.98 60.7452 131.608 64.5553 130.451 67.4961C129.46 70.0057 127.906 70.9402 124.706 70.9402C117.811 70.9467 110.916 70.9402 104.007 70.9402H92.3981V84.3178H92.993C96.4837 84.3178 99.9611 84.3374 103.432 84.357C106.817 84.3766 110.248 84.3962 113.692 84.3962C118.227 84.3962 122.789 84.3636 127.298 84.2459C136.877 83.9976 145.121 75.9985 145.67 66.4178C146.331 54.9419 140.064 46.5964 129.704 45.1652H129.698Z" fill="white"/>
<path d="M375.398 17.9786L367.881 17.9656C361.383 17.9525 354.884 17.9459 348.385 17.9721C336.816 18.0244 328.301 26.3568 328.136 37.7804C328.01 46.4984 328.01 55.4909 328.136 64.503C328.301 76.1488 336.704 84.3113 348.571 84.3505C351.823 84.3636 355.076 84.3636 358.328 84.3636C361.581 84.3636 364.88 84.3636 368.153 84.357H374.215C374.678 84.3505 375.14 84.3178 375.623 84.2917L376.886 84.2198V70.9402H366.202C360.517 70.9402 354.838 70.9402 349.159 70.9402C344.73 70.9402 342.997 69.2672 342.984 64.9996C342.958 55.2883 342.958 46.2566 342.984 37.3948C342.997 33.0816 344.716 31.3955 349.113 31.3889C354.95 31.3824 360.788 31.3824 366.625 31.3889H376.932V18.1681L375.987 18.044C375.735 18.0048 375.564 17.9852 375.398 17.9852V17.9786Z" fill="white"/>
<path d="M649.645 17.9721H644.515C637.679 17.959 630.837 17.9525 624.001 17.9721C612.121 18.0113 603.705 26.1673 603.54 37.8C603.414 46.6683 603.414 55.6543 603.54 64.5226C603.705 76.1618 612.121 84.3113 623.994 84.3505C627.306 84.3636 630.612 84.3636 633.924 84.3636C637.56 84.3636 641.196 84.3636 644.832 84.357H649.639C650.101 84.357 650.564 84.3178 651.047 84.2851L652.29 84.2132V70.9402H641.692C635.901 70.9402 630.109 70.9467 624.318 70.9402C620.186 70.9336 618.414 69.2149 618.401 65.2088C618.368 56.5757 618.368 47.4722 618.401 37.3752C618.414 33.075 620.14 31.402 624.55 31.3889C630.387 31.3824 636.225 31.3824 642.062 31.3889H652.336V18.1159L651.067 18.0374C650.571 18.0048 650.108 17.9721 649.645 17.9721Z" fill="white"/>
<path d="M495.681 0.706009H442.019V13.9791H461.468V84.2329H476.317V13.9595H495.681V0.706009Z" fill="white"/>
<path d="M532.279 17.9721C526.937 17.9656 521.596 17.9656 516.254 17.9721C503.409 17.9852 495.105 26.213 495.085 38.9437C495.072 50.6287 495.079 62.3137 495.085 73.9987V81.2528C495.085 81.8018 495.125 82.3507 495.158 82.9193L495.231 84.2851H509.96V68.0385C509.96 58.1115 509.96 48.191 509.96 38.264C509.96 32.8071 511.368 31.3889 516.816 31.3889H521.483C525.119 31.3889 528.749 31.3889 532.378 31.3889C532.887 31.3889 533.396 31.3563 533.925 31.317L535.201 31.2386V18.1093L533.826 18.0374C533.291 18.0048 532.782 17.9786 532.279 17.9786V17.9721Z" fill="white"/>
<path d="M82.5617 23.246H68.0239V84.2786H82.5617V23.246Z" fill="white"/>
<path d="M82.5617 1.02623H68.0239V14.8483H82.5617V1.02623Z" fill="#F27B42"/>
<path d="M443.07 42.3551C442.865 32.2647 435.963 24.6903 425.881 23.5009C421.928 23.0369 417.862 23.1219 413.928 23.2134C412.553 23.246 411.171 23.2722 409.796 23.2852C408.957 23.2852 408.137 23.9192 407.509 24.4681C406.021 25.7817 404.56 27.128 402.927 28.6376L402.227 29.2781V36.6498H421.617C426.595 36.6498 428.274 38.3359 428.274 43.3223C428.274 53.3604 428.274 58.1638 428.274 68.1954V84.2329H442.759L442.898 83.8408C442.931 83.7493 442.964 83.6708 442.99 83.6055C443.057 83.4486 443.129 83.2853 443.129 83.0761C443.129 78.606 443.156 74.1294 443.176 69.6528C443.222 58.9872 443.275 53.1905 443.057 42.342L443.07 42.3551Z" fill="white"/>
<path d="M402.233 1.75818H387.166V84.3832H402.233V1.75818Z" fill="white"/>
</svg>
