<svg width="718" height="109" viewBox="0 0 718 109" fill="none" xmlns="http://www.w3.org/2000/svg">
<path d="M301.448 71.2135C296.173 71.2135 294.566 69.6515 294.56 64.541V31.5903H319.768V18.2454L302.757 18.2323C301.766 18.2323 300.834 18.6048 300.12 19.2845L294.447 24.663V2.03143L279.685 15.1084V15.3699C279.685 20.9509 279.685 26.5386 279.685 32.1197C279.685 35.4265 279.678 38.7333 279.665 42.0402C279.632 49.8498 279.605 57.9208 279.797 65.8611C280.048 76.2064 288.563 84.4408 299.187 84.6042C301.653 84.6434 304.132 84.6564 306.605 84.6564C308.773 84.6564 310.935 84.6499 313.057 84.6368L317.745 84.6238C318.148 84.6238 318.531 84.5453 318.875 84.48C319.014 84.4538 319.146 84.4277 319.278 84.4081L319.781 84.3297V71.22H301.455L301.448 71.2135Z" fill="white"/>
<path d="M37.5474 1.25372C27.2804 1.24065 17.02 1.24718 6.75303 1.25372H3.20289C2.69383 1.25372 2.18478 1.28639 1.66251 1.3256L0.353516 1.39749V84.6303H12.3592C16.1143 84.6303 19.8496 84.6303 23.5782 84.6303C28.2588 84.6303 32.9196 84.6303 37.5871 84.6237C49.7052 84.6041 58.1805 76.2325 58.2004 64.2599C58.2268 50.6013 58.2202 35.3677 58.2004 21.7155C58.1872 9.49465 49.8837 1.27332 37.5474 1.25372ZM43.2792 65.6585C43.2792 69.377 41.4347 71.1938 37.6532 71.2069C31.9809 71.2265 26.302 71.22 20.6297 71.2134H16.3721C16.0416 71.2134 15.7044 71.1873 15.3144 71.1611H15.2086V14.7817C15.2086 14.7817 15.235 14.7817 15.2483 14.7817C15.6383 14.7294 16.0019 14.6771 16.3523 14.6771C23.446 14.664 30.5397 14.651 37.6333 14.6771C41.4215 14.6902 43.266 16.5004 43.2726 20.2059C43.2924 34.8318 43.2924 51.0392 43.2726 65.665L43.2792 65.6585Z" fill="white"/>
<path d="M187.017 18.2453L184.485 18.2257C181.556 18.1996 178.528 18.1735 175.547 18.2976C174.291 18.3499 172.863 18.8923 171.825 19.7092C170.331 20.879 168.975 22.1403 167.402 23.6042C167.045 23.9375 166.675 24.2839 166.291 24.6303V18.3238H151.615V108.007H166.351V84.6303H172.565C177.444 84.6368 182.198 84.6433 186.951 84.6303C198.857 84.5976 207.359 76.507 207.624 64.9527C207.822 56.3392 207.829 47.2683 207.624 38.0014C207.379 26.6039 198.712 18.2976 187.017 18.2453ZM192.703 66.4362C192.676 69.1352 190.732 71.1219 188.088 71.1612C182.898 71.2396 177.801 71.2265 172.413 71.2069C170.45 71.2069 168.48 71.1938 166.483 71.1938V31.6556H181.675C183.54 31.6426 185.404 31.636 187.268 31.6622C190.633 31.7079 192.663 33.5378 192.696 36.5505C192.815 45.9547 192.815 55.7249 192.696 66.4296L192.703 66.4362Z" fill="white"/>
<path d="M700.392 52.6926C710.818 45.3143 715.717 34.5704 715.796 18.9381V18.3499H701.073L701.034 18.8989C700.531 26.336 699.612 33.4528 694.066 38.7595C688.83 43.772 682.119 45.079 674.537 46.0528V0.887756H659.906V84.4734H674.596V76.0757C674.616 71.5467 674.623 66.861 674.563 62.2471C674.543 60.9008 674.781 60.646 676.17 60.5218C679.382 60.2408 682.371 59.7376 685.048 59.0383C686.641 58.62 687.15 59.0056 687.871 60.378C691.752 67.7498 695.818 75.1869 699.738 82.3822L699.93 82.7285C700.584 83.9245 701.232 84.5388 701.873 84.5584C704.564 84.6238 707.235 84.6368 709.979 84.6368C711.063 84.6368 712.16 84.6368 713.277 84.6368H717.713L700.386 52.7057L700.392 52.6926Z" fill="white"/>
<path d="M250.477 18.2453C243.674 18.2127 236.871 18.2257 230.069 18.2323H224.145C223.682 18.2388 223.22 18.2846 222.744 18.3303C222.532 18.3499 222.314 18.3695 222.089 18.3891L221.54 18.4283V31.6557H230.598C236.495 31.6557 242.385 31.6426 248.282 31.6753C249.624 31.6818 250.96 31.8256 252.236 32.0935C253.254 32.3092 255.019 32.9758 255.382 35.0148C255.653 36.5505 255.753 38.1125 255.858 39.7593C255.891 40.2822 255.925 40.805 255.964 41.3409C253.783 41.3409 251.641 41.3409 249.518 41.3278C244.315 41.3147 239.403 41.3017 234.412 41.3539C224.8 41.4454 217.084 47.5624 215.207 56.5745C214.586 59.5676 214.467 62.979 214.843 67.3054C215.59 75.9319 222.254 83.003 230.69 84.1271C233.731 84.5322 236.838 84.6172 239.906 84.6172C241.05 84.6172 242.193 84.6041 243.324 84.5911C244.54 84.578 245.783 84.5649 246.98 84.5649C248.024 84.5649 249.34 84.0486 250.325 83.2513C251.839 82.0227 253.234 80.7353 254.847 79.2387C255.197 78.9119 255.554 78.5787 255.925 78.2388V84.5061H270.535L270.601 83.9898C270.621 83.8395 270.641 83.7023 270.661 83.5716C270.707 83.271 270.747 83.0095 270.747 82.7416C270.747 78.3238 270.76 73.906 270.773 69.4881C270.806 58.9925 270.846 48.1375 270.667 37.4655C270.482 26.1987 262.179 18.2911 250.477 18.2388V18.2453ZM255.746 54.7904V71.2134H247.383C243.443 71.2134 239.509 71.22 235.569 71.2134C231.312 71.2004 229.48 69.377 229.454 65.1095L229.441 63.8482C229.421 62.4889 229.408 61.0838 229.487 59.718C229.652 56.9013 231.523 54.895 234.035 54.8492C237.182 54.7839 240.369 54.7643 243.535 54.7643C245.658 54.7643 247.78 54.7708 249.862 54.7773C251.812 54.7839 253.776 54.7904 255.746 54.7969V54.7904Z" fill="white"/>
<path d="M574.729 18.278C568.032 18.1865 561.223 18.2061 554.631 18.2323C551.941 18.2388 549.25 18.2519 546.559 18.2519C546.282 18.2519 545.997 18.2976 545.726 18.3499L544.92 18.4675V31.6622H551.947C558.459 31.6557 564.898 31.6557 571.338 31.6818C572.706 31.6818 574.042 31.8125 575.311 32.0543C577.393 32.4464 578.643 33.76 578.907 35.8513C579.073 37.1387 579.125 38.4654 579.178 39.8704C579.198 40.3475 579.218 40.8377 579.238 41.3474H576.977C574.967 41.3474 572.938 41.3474 570.921 41.3343C566.452 41.3213 561.831 41.3082 557.276 41.3801C548.199 41.5304 540.543 47.5886 538.652 56.1236C537.952 59.2932 537.786 62.9464 538.143 67.2923C538.857 75.9188 545.508 83.003 553.964 84.1336C557.011 84.5388 560.132 84.6303 563.213 84.6303C564.343 84.6303 565.467 84.6172 566.584 84.6041C567.708 84.5911 568.839 84.578 569.963 84.578C570.062 84.578 570.141 84.5584 570.267 84.578C571.324 84.578 572.64 84.0683 573.612 83.2775C575.126 82.0489 576.587 80.6961 578.127 79.2649C578.478 78.9381 578.841 78.6048 579.211 78.265V84.4408H593.981V83.8526C593.981 79.1145 594 74.3961 594.02 69.6907C594.066 58.8292 594.113 47.6016 593.901 36.5898C593.709 26.2968 585.465 18.4218 574.722 18.278H574.729ZM579.079 54.7708V71.2134H564.541C562.472 71.2265 560.403 71.233 558.334 71.2069C554.916 71.1612 552.886 69.2333 552.774 65.9134C552.694 63.6456 552.701 61.6589 552.787 59.8487C552.926 56.8751 554.883 54.8492 557.653 54.81C560.7 54.7643 563.722 54.7512 566.783 54.7512C568.872 54.7512 570.981 54.7512 573.142 54.7643C575.106 54.7643 577.076 54.7773 579.073 54.7773L579.079 54.7708Z" fill="white"/>
<path d="M129.183 45.4385C124.939 44.8503 120.549 44.896 116.318 44.9418C114.566 44.9614 112.814 44.981 111.056 44.9549C106.705 44.896 104.682 42.759 104.676 38.2366C104.669 33.8842 106.778 31.6687 110.95 31.6622C117.31 31.6491 123.669 31.6556 130.029 31.6556H141.004V18.3891L139.959 18.3042C139.609 18.2715 139.291 18.2453 138.974 18.2453H132.733C125.164 18.2323 117.349 18.2257 109.654 18.278C108.041 18.2911 106.269 18.546 104.544 19.0165C94.8187 21.6763 88.7498 31.0413 90.105 41.2755C91.4338 51.3202 99.2812 58.1756 109.621 58.339C111.829 58.3717 114.037 58.3652 116.245 58.3586C119.101 58.3456 122.056 58.339 124.959 58.424C126.248 58.4632 127.669 58.9272 128.588 59.6134C130.466 61.0185 131.094 64.8285 129.937 67.7694C128.945 70.2789 127.391 71.2134 124.192 71.2134C117.296 71.22 110.401 71.2134 103.492 71.2134H91.8834V84.5911H92.4784C95.969 84.5911 99.4465 84.6107 102.917 84.6303C106.302 84.6499 109.733 84.6695 113.178 84.6695C117.713 84.6695 122.274 84.6368 126.783 84.5192C136.363 84.2708 144.607 76.2717 145.155 66.6911C145.817 55.2152 139.549 46.8697 129.19 45.4385H129.183Z" fill="white"/>
<path d="M374.884 18.2519L367.367 18.2388C360.869 18.2257 354.37 18.2192 347.871 18.2453C336.302 18.2976 327.787 26.6301 327.622 38.0536C327.496 46.7717 327.496 55.7641 327.622 64.7762C327.787 76.422 336.189 84.5845 348.056 84.6237C351.309 84.6368 354.562 84.6368 357.814 84.6368C361.067 84.6368 364.366 84.6368 367.638 84.6303H373.701C374.163 84.6237 374.626 84.5911 375.109 84.5649L376.372 84.493V71.2134H365.688C360.003 71.2134 354.324 71.2134 348.645 71.2134C344.215 71.2134 342.483 69.5404 342.47 65.2729C342.444 55.5615 342.444 46.5298 342.47 37.6681C342.483 33.3548 344.202 31.6687 348.598 31.6622C354.436 31.6556 360.274 31.6556 366.111 31.6622H376.418V18.4414L375.472 18.3172C375.221 18.278 375.049 18.2584 374.884 18.2584V18.2519Z" fill="white"/>
<path d="M649.129 18.2453H643.999C637.163 18.2323 630.321 18.2257 623.485 18.2453C611.605 18.2846 603.189 26.4405 603.024 38.0733C602.898 46.9416 602.898 55.9275 603.024 64.7958C603.189 76.4351 611.605 84.5845 623.479 84.6237C626.791 84.6368 630.096 84.6368 633.408 84.6368C637.044 84.6368 640.681 84.6368 644.317 84.6303H649.123C649.586 84.6303 650.048 84.5911 650.531 84.5584L651.774 84.4865V71.2134H641.176C635.385 71.2134 629.594 71.22 623.802 71.2134C619.671 71.2069 617.899 69.4881 617.886 65.482C617.853 56.849 617.853 47.7454 617.886 37.6485C617.899 33.3483 619.624 31.6753 624.034 31.6622C629.871 31.6557 635.709 31.6557 641.547 31.6622H651.82V18.3891L650.551 18.3107C650.055 18.278 649.592 18.2453 649.129 18.2453Z" fill="white"/>
<path d="M495.166 0.979263H441.504V14.2523H460.954V84.5061H475.802V14.2327H495.166V0.979263Z" fill="white"/>
<path d="M531.764 18.2453C526.422 18.2388 521.081 18.2388 515.739 18.2453C502.893 18.2584 494.59 26.4863 494.57 39.2169C494.557 50.9019 494.564 62.5869 494.57 74.2719V81.5261C494.57 82.075 494.61 82.624 494.643 83.1925L494.716 84.5584H509.445V68.3118C509.445 58.3848 509.445 48.4643 509.445 38.5373C509.445 33.0803 510.853 31.6622 516.301 31.6622H520.968C524.604 31.6622 528.234 31.6622 531.863 31.6622C532.372 31.6622 532.881 31.6295 533.41 31.5903L534.686 31.5119V18.3826L533.311 18.3107C532.775 18.278 532.266 18.2519 531.764 18.2519V18.2453Z" fill="white"/>
<path d="M82.047 23.5193H67.5093V84.5518H82.047V23.5193Z" fill="white"/>
<path d="M82.047 1.29947H67.5093V15.1215H82.047V1.29947Z" fill="white"/>
<path d="M442.555 42.6283C442.35 32.5379 435.448 24.9636 425.366 23.7741C421.413 23.3101 417.347 23.3951 413.414 23.4866C412.038 23.5193 410.657 23.5454 409.282 23.5585C408.442 23.5585 407.622 24.1924 406.994 24.7414C405.507 26.0549 404.046 27.4012 402.413 28.9108L401.712 29.5513V36.923H421.102C426.08 36.923 427.76 38.6091 427.76 43.5955C427.76 53.6336 427.76 58.437 427.76 68.4686V84.5061H442.244L442.383 84.114C442.416 84.0225 442.449 83.9441 442.476 83.8787C442.542 83.7219 442.615 83.5585 442.615 83.3494C442.615 78.8793 442.641 74.4026 442.661 69.926C442.707 59.2605 442.76 53.4637 442.542 42.6152L442.555 42.6283Z" fill="white"/>
<path d="M401.718 2.03143H386.651V84.6564H401.718V2.03143Z" fill="white"/>
</svg>
