<svg width="1377" height="208" viewBox="0 0 1377 208" fill="none" xmlns="http://www.w3.org/2000/svg">
<g clip-path="url(#clip0_844_273)">
<path d="M577.959 136.548C567.832 136.548 564.749 133.515 564.736 123.592V59.6135H613.122V33.7023L580.471 33.6769C578.568 33.6769 576.779 34.4002 575.408 35.7199L564.52 46.163V2.2206L536.184 27.6115V28.1191C536.184 38.9556 536.184 49.8048 536.184 60.6413C536.184 67.062 536.171 73.4827 536.146 79.9034C536.082 95.0669 536.032 110.738 536.4 126.155C536.882 146.242 553.226 162.23 573.619 162.548C578.352 162.624 583.111 162.649 587.857 162.649C592.019 162.649 596.169 162.636 600.242 162.611L609.239 162.586C610.013 162.586 610.749 162.433 611.409 162.307C611.676 162.256 611.929 162.205 612.183 162.167L613.148 162.015V136.56H577.971L577.959 136.548Z" fill="#0052CC"/>
<path d="M71.4057 0.71059C51.6984 0.685212 32.0038 0.697901 12.2965 0.71059H5.48202C4.5049 0.71059 3.52778 0.774036 2.52528 0.850171L0.0126953 0.989751V162.598H23.0574C30.2653 162.598 37.435 162.598 44.5921 162.598C53.5765 162.598 62.5229 162.598 71.4819 162.586C94.7424 162.548 111.011 146.293 111.049 123.046C111.1 96.5261 111.087 66.9478 111.049 40.4402C111.023 16.7116 95.085 0.748658 71.4057 0.71059ZM82.4078 125.762C82.4078 132.982 78.8674 136.51 71.6088 136.535C60.7209 136.573 49.8203 136.56 38.9324 136.548H30.7602C30.1257 136.548 29.4785 136.497 28.7298 136.446H28.5268V26.9771C28.5268 26.9771 28.5775 26.9771 28.6029 26.9771C29.3516 26.8756 30.0495 26.774 30.7221 26.774C44.3383 26.7487 57.9545 26.7233 71.5707 26.774C78.842 26.7994 82.3824 30.3143 82.3951 37.509C82.4332 65.9073 82.4332 97.3763 82.3951 125.775L82.4078 125.762Z" fill="#0052CC"/>
<path d="M358.31 33.7023L353.45 33.6642C347.828 33.6135 342.017 33.5627 336.293 33.8038C333.882 33.9053 331.141 34.9585 329.149 36.5447C326.281 38.816 323.68 41.265 320.66 44.1074C319.974 44.7545 319.264 45.427 318.528 46.0996V33.8546H290.356V207.987H318.642V162.598H330.57C339.935 162.611 349.059 162.624 358.183 162.598C381.038 162.535 397.357 146.826 397.865 124.391C398.245 107.667 398.258 90.0547 397.865 72.0615C397.395 49.9317 380.759 33.8038 358.31 33.7023ZM369.224 127.272C369.173 132.512 365.442 136.37 360.366 136.446C350.405 136.598 340.621 136.573 330.278 136.535C326.51 136.535 322.728 136.51 318.896 136.51V59.7404H348.057C351.635 59.715 355.214 59.7023 358.793 59.753C365.252 59.8419 369.147 63.3948 369.211 69.2445C369.439 87.5042 369.439 106.474 369.211 127.259L369.224 127.272Z" fill="#0052CC"/>
<path d="M1343.73 100.587C1363.74 86.2606 1373.14 65.3997 1373.29 35.0473V33.9053H1345.03L1344.96 34.9712C1343.99 49.4114 1342.23 63.2299 1331.58 73.5334C1321.53 83.266 1308.65 85.8038 1294.1 87.6945V0H1266.01V162.294H1294.21V145.988C1294.25 137.195 1294.26 128.097 1294.15 119.138C1294.11 116.524 1294.57 116.029 1297.23 115.788C1303.4 115.243 1309.13 114.266 1314.27 112.908C1317.33 112.096 1318.31 112.844 1319.69 115.509C1327.14 129.822 1334.95 144.263 1342.47 158.233L1342.84 158.906C1344.1 161.228 1345.34 162.421 1346.57 162.459C1351.73 162.586 1356.86 162.611 1362.13 162.611C1364.21 162.611 1366.32 162.611 1368.46 162.611H1376.97L1343.71 100.612L1343.73 100.587Z" fill="#0052CC"/>
<path d="M480.12 33.7023C467.062 33.6388 454.004 33.6642 440.947 33.6769H429.576C428.688 33.6896 427.8 33.7784 426.886 33.8673C426.48 33.9053 426.061 33.9434 425.63 33.9815L424.577 34.0576V59.7404H441.962C453.281 59.7404 464.588 59.715 475.907 59.7784C478.483 59.7911 481.047 60.0703 483.496 60.5905C485.45 61.0093 488.838 62.3036 489.536 66.2626C490.056 69.2445 490.247 72.2772 490.45 75.4749C490.513 76.49 490.577 77.5051 490.653 78.5456C486.465 78.5456 482.354 78.5456 478.28 78.5203C468.293 78.4949 458.865 78.4695 449.284 78.571C430.833 78.7487 416.024 90.6257 412.42 108.124C411.227 113.936 410.999 120.559 411.722 128.959C413.156 145.709 425.947 159.439 442.139 161.621C447.977 162.408 453.941 162.573 459.829 162.573C462.024 162.573 464.22 162.548 466.39 162.522C468.725 162.497 471.11 162.471 473.407 162.471C475.412 162.471 477.937 161.469 479.828 159.921C482.734 157.535 485.412 155.036 488.508 152.13C489.181 151.495 489.866 150.848 490.577 150.188V162.357H518.621L518.748 161.355C518.786 161.063 518.824 160.796 518.862 160.543C518.951 159.959 519.027 159.451 519.027 158.931C519.027 150.353 519.053 141.775 519.078 133.198C519.141 112.819 519.218 91.7423 518.875 71.021C518.52 49.145 502.581 33.7911 480.12 33.6896V33.7023ZM490.234 104.66V136.548H474.181C466.618 136.548 459.068 136.56 451.505 136.548C443.332 136.522 439.817 132.982 439.766 124.696L439.741 122.247C439.703 119.608 439.678 116.879 439.83 114.227C440.147 108.758 443.738 104.863 448.561 104.774C454.601 104.647 460.717 104.609 466.796 104.609C470.869 104.609 474.943 104.622 478.94 104.634C482.683 104.647 486.452 104.66 490.234 104.673V104.66Z" fill="#0052CC"/>
<path d="M1102.52 33.7657C1089.66 33.5881 1076.59 33.6262 1063.94 33.6769C1058.78 33.6896 1053.61 33.715 1048.45 33.715C1047.91 33.715 1047.37 33.8038 1046.85 33.9053L1045.3 34.1337V59.7531H1058.79C1071.29 59.7404 1083.65 59.7404 1096.01 59.7911C1098.64 59.7911 1101.2 60.0449 1103.64 60.5144C1107.63 61.2757 1110.03 63.8263 1110.54 67.8868C1110.86 70.3865 1110.96 72.9624 1111.06 75.6906C1111.1 76.6169 1111.14 77.5686 1111.17 78.5583H1106.83C1102.98 78.5583 1099.08 78.5583 1095.21 78.5329C1086.63 78.5076 1077.76 78.4822 1069.02 78.6218C1051.59 78.9136 1036.9 90.6764 1033.27 107.248C1031.93 113.403 1031.61 120.496 1032.29 128.934C1033.66 145.684 1046.43 159.439 1062.66 161.634C1068.51 162.421 1074.5 162.598 1080.41 162.598C1082.58 162.598 1084.74 162.573 1086.88 162.548C1089.04 162.522 1091.21 162.497 1093.37 162.497C1093.56 162.497 1093.71 162.459 1093.95 162.497C1095.98 162.497 1098.51 161.507 1100.37 159.972C1103.28 157.586 1106.08 154.959 1109.04 152.181C1109.71 151.546 1110.41 150.899 1111.12 150.239V162.23H1139.47V161.088C1139.47 151.889 1139.51 142.727 1139.55 133.591C1139.64 112.502 1139.73 90.7018 1139.32 69.3206C1138.95 49.3353 1123.13 34.0449 1102.51 33.7657H1102.52ZM1110.87 104.622V136.548H1082.96C1078.99 136.573 1075.02 136.586 1071.05 136.535C1064.49 136.446 1060.59 132.703 1060.38 126.257C1060.22 121.854 1060.24 117.996 1060.4 114.481C1060.67 108.708 1064.42 104.774 1069.74 104.698C1075.59 104.609 1081.39 104.584 1087.27 104.584C1091.28 104.584 1095.32 104.584 1099.47 104.609C1103.24 104.609 1107.02 104.634 1110.86 104.634L1110.87 104.622Z" fill="#0052CC"/>
<path d="M247.3 86.5017C239.153 85.3597 230.727 85.4485 222.605 85.5373C219.242 85.5754 215.88 85.6135 212.504 85.5627C204.154 85.4485 200.271 81.2992 200.258 72.5183C200.246 64.0674 204.294 59.7657 212.301 59.7531C224.509 59.7277 236.716 59.7404 248.924 59.7404H269.989V33.9815L267.984 33.8165C267.312 33.7531 266.702 33.7023 266.093 33.7023H254.114C239.584 33.6769 224.585 33.6642 209.814 33.7657C206.718 33.7911 203.317 34.286 200.005 35.1996C181.338 40.3641 169.689 58.5476 172.29 78.4187C174.841 97.9219 189.904 111.233 209.75 111.55C213.989 111.613 218.227 111.601 222.466 111.588C227.948 111.563 233.62 111.55 239.191 111.715C241.665 111.791 244.394 112.692 246.158 114.024C249.762 116.753 250.967 124.15 248.746 129.86C246.843 134.733 243.861 136.548 237.719 136.548C224.483 136.56 211.248 136.548 197.987 136.548H175.704V162.522H176.846C183.546 162.522 190.221 162.56 196.883 162.598C203.38 162.636 209.966 162.674 216.578 162.674C225.283 162.674 234.039 162.611 242.693 162.383C261.081 161.9 276.905 146.369 277.958 127.767C279.227 105.485 267.197 89.2806 247.312 86.5017H247.3Z" fill="#0052CC"/>
<path d="M718.918 33.715L704.489 33.6896C692.015 33.6642 679.541 33.6515 667.067 33.7023C644.86 33.8038 628.515 49.9824 628.198 72.163C627.957 89.0903 627.957 106.551 628.198 124.049C628.515 146.661 644.644 162.51 667.422 162.586C673.666 162.611 679.909 162.611 686.152 162.611C692.396 162.611 698.728 162.611 705.01 162.598H716.646C717.534 162.586 718.423 162.522 719.349 162.471L721.773 162.332V136.548H701.266C690.353 136.548 679.452 136.548 668.552 136.548C660.049 136.548 656.725 133.299 656.699 125.013C656.649 106.157 656.649 88.6208 656.699 71.4143C656.725 63.0395 660.024 59.7657 668.463 59.753C679.668 59.7404 690.873 59.7404 702.078 59.753H721.862V34.083L720.047 33.8419C719.565 33.7657 719.235 33.7277 718.918 33.7277V33.715Z" fill="#0052CC"/>
<path d="M1245.33 33.7023H1235.48C1222.36 33.6769 1209.23 33.6642 1196.11 33.7023C1173.3 33.7784 1157.15 49.6145 1156.83 72.2011C1156.59 89.4202 1156.59 106.868 1156.83 124.087C1157.15 146.686 1173.3 162.51 1196.09 162.586C1202.45 162.611 1208.8 162.611 1215.15 162.611C1222.13 162.611 1229.11 162.611 1236.09 162.598H1245.32C1246.21 162.598 1247.09 162.522 1248.02 162.459L1250.41 162.319V136.548H1230.06C1218.95 136.548 1207.83 136.56 1196.72 136.548C1188.78 136.535 1185.38 133.198 1185.36 125.419C1185.29 108.657 1185.29 90.981 1185.36 71.3763C1185.38 63.0268 1188.7 59.7784 1197.16 59.7531C1208.36 59.7404 1219.57 59.7404 1230.77 59.7531H1250.49V33.9815L1248.06 33.8292C1247.11 33.7657 1246.22 33.7023 1245.33 33.7023Z" fill="#0052CC"/>
<path d="M949.796 0.177647H846.793V25.9492H884.126V162.357H912.628V25.9112H949.796V0.177647Z" fill="#0052CC"/>
<path d="M1020.05 33.7023C1009.79 33.6896 999.541 33.6896 989.287 33.7023C964.631 33.7277 948.692 49.7033 948.654 74.4217C948.629 97.1098 948.642 119.798 948.654 142.486V156.571C948.654 157.637 948.73 158.703 948.794 159.807L948.933 162.459H977.206V130.914C977.206 111.639 977.206 92.3768 977.206 73.102C977.206 62.5066 979.909 59.753 990.366 59.753H999.325C1006.3 59.753 1013.27 59.753 1020.24 59.753C1021.21 59.753 1022.19 59.6896 1023.21 59.6135L1025.66 59.4612V33.9688L1023.02 33.8292C1021.99 33.7657 1021.01 33.715 1020.05 33.715V33.7023Z" fill="#0052CC"/>
<path d="M156.821 43.9424H128.916V162.446H156.821V43.9424Z" fill="#0052CC"/>
<path d="M156.821 0.799416H128.916V27.6369H156.821V0.799416Z" fill="#F27B42"/>
<path d="M848.811 81.0454C848.417 61.4534 835.169 46.7467 815.817 44.4373C808.229 43.5364 800.424 43.7013 792.874 43.879C790.234 43.9424 787.582 43.9932 784.943 44.0185C783.331 44.0185 781.758 45.2494 780.552 46.3153C777.697 48.8658 774.892 51.4797 771.758 54.4109L770.413 55.6545V69.9678H807.632C817.188 69.9678 820.411 73.2416 820.411 82.9234C820.411 102.414 820.411 111.74 820.411 131.218V162.357H848.214L848.481 161.596C848.544 161.418 848.608 161.266 848.658 161.139C848.785 160.835 848.925 160.517 848.925 160.111C848.925 151.432 848.976 142.74 849.014 134.048C849.103 113.339 849.204 102.084 848.785 81.02L848.811 81.0454Z" fill="#0052CC"/>
<path d="M770.425 2.2206H741.505V162.649H770.425V2.2206Z" fill="#0052CC"/>
</g>
<defs>
<clipPath id="clip0_844_273">
<rect width="1377" height="208" fill="white"/>
</clipPath>
</defs>
</svg>
